<svg width="53" height="53" viewBox="0 0 53 53" fill="none" xmlns="http://www.w3.org/2000/svg">
<path d="M0 20.3846C0 9.1265 9.1265 0 20.3846 0H32.6154C43.8735 0 53 9.1265 53 20.3846V32.6154C53 43.8735 43.8735 53 32.6154 53H0V20.3846Z" fill="#E0EFFF"/>
<path d="M20.5 22.75V29.25C20.5 31.4167 21.5833 32.5 23.75 32.5H30.25C32.4167 32.5 33.5 31.4167 33.5 29.25V26C33.5 25.35 33.0667 24.9167 32.4167 24.9167C31.7667 24.9167 31.3333 24.4833 31.3333 23.8333V22.75C31.3333 20.5833 30.25 19.5 28.0833 19.5H23.75C21.5833 19.5 20.5 20.5833 20.5 22.75Z" stroke="#0D60D8" stroke-width="1.5" stroke-miterlimit="10"/>
<path d="M24.8334 23.8333H27M24.8334 28.1666H29.1667" stroke="#0D60D8" stroke-width="1.5" stroke-miterlimit="10" stroke-linecap="round" stroke-linejoin="round"/>
<path d="M30.25 36.8334H23.75C18.3333 36.8334 16.1666 34.6667 16.1666 29.2501V22.7501C16.1666 17.3334 18.3333 15.1667 23.75 15.1667H30.25C35.6666 15.1667 37.8333 17.3334 37.8333 22.7501V29.2501C37.8333 34.6667 35.6666 36.8334 30.25 36.8334Z" stroke="#0D60D8" stroke-width="1.5" stroke-linecap="round" stroke-linejoin="round"/>
</svg>
