<svg width="53" height="53" viewBox="0 0 53 53" fill="none" xmlns="http://www.w3.org/2000/svg">
<path d="M0 20.3846C0 9.1265 9.1265 0 20.3846 0H32.6154C43.8735 0 53 9.1265 53 20.3846V32.6154C53 43.8735 43.8735 53 32.6154 53H0V20.3846Z" fill="#E4FFF1"/>
<path d="M24.8333 36.8334H29.1667C34.5833 36.8334 36.75 34.6667 36.75 29.2501V22.7501C36.75 17.3334 34.5833 15.1667 29.1667 15.1667H24.8333C19.4167 15.1667 17.25 17.3334 17.25 22.7501V29.2501C17.25 34.6667 19.4167 36.8334 24.8333 36.8334Z" stroke="#10B259" stroke-width="1.5" stroke-linecap="round" stroke-linejoin="round"/>
<path d="M31.875 21.2117V22.295C31.875 23.1833 31.1492 23.92 30.25 23.92H23.75C22.8617 23.92 22.125 23.1942 22.125 22.295V21.2117C22.125 20.3233 22.8508 19.5867 23.75 19.5867H30.25C31.1492 19.5867 31.875 20.3125 31.875 21.2117Z" stroke="#10B259" stroke-width="1.5" stroke-linecap="round" stroke-linejoin="round"/>
<path d="M22.814 28.1667H22.827M26.9945 28.1667H27.0075M31.1751 28.1667H31.1881M22.814 31.9584H22.827M26.9945 31.9584H27.0075M31.1751 31.9584H31.1881" stroke="#10B259" stroke-width="2" stroke-linecap="round" stroke-linejoin="round"/>
</svg>
