<svg width="40" height="40" viewBox="0 0 40 40" fill="none" xmlns="http://www.w3.org/2000/svg">
<path d="M0 20C0 8.95431 8.95431 0 20 0C31.0457 0 40 8.95431 40 20C40 31.0457 31.0457 40 20 40H0V20Z" fill="#CDFFF5"/>
<path d="M20.697 24.9893V14.6316H16.916V24.9893M20.697 24.9893H16.916M20.697 24.9893V27.168C20.697 27.3295 20.6328 27.4844 20.5186 27.5986C20.4044 27.7128 20.2495 27.777 20.0879 27.777H17.5251C17.4451 27.777 17.3659 27.7613 17.292 27.7306C17.2181 27.7 17.151 27.6552 17.0944 27.5986C17.0379 27.5421 16.993 27.4749 16.9624 27.401C16.9318 27.3271 16.916 27.2479 16.916 27.168V24.9893M16.916 24.9893V15.9968H12.7018M16.916 24.9893H12.7018M16.916 24.9893V27.0944C16.916 27.2765 16.8437 27.4512 16.7149 27.58C16.5861 27.7087 16.4115 27.7811 16.2293 27.7811H13.3681C13.186 27.7811 13.0113 27.7087 12.8825 27.58C12.7537 27.4512 12.6814 27.2765 12.6814 27.0944L12.7018 24.9893M21.0362 17.591L25.3853 16.892L25.0624 14.8482C25.0323 14.6614 24.9293 14.4941 24.7761 14.383C24.6229 14.2719 24.4319 14.2261 24.2449 14.2556L24.249 14.2596L21.3019 14.7297C21.2093 14.7441 21.1205 14.7767 21.0406 14.8258C20.9607 14.8748 20.8913 14.9392 20.8366 15.0153C20.7818 15.0914 20.7427 15.1776 20.7215 15.2689C20.7004 15.3602 20.6976 15.4548 20.7133 15.5472L21.0362 17.591ZM21.0362 17.591L22.2339 25.1242L26.583 24.4375M21.0362 17.591L25.3853 16.9002H25.3813L26.583 24.4375M26.583 24.4375L26.91 26.4813C26.9251 26.5739 26.9218 26.6686 26.9001 26.76C26.8785 26.8513 26.839 26.9375 26.7839 27.0134C26.7288 27.0894 26.6592 27.1538 26.5791 27.2028C26.499 27.2517 26.41 27.2844 26.3173 27.2988L23.3702 27.7688C23.1833 27.7983 22.9923 27.7524 22.839 27.6414C22.6858 27.5303 22.5828 27.363 22.5527 27.1761L22.2298 25.1324L26.5789 24.4416L26.583 24.4375ZM12.7018 15.9968H16.9365V13.8918C16.9365 13.7096 16.8641 13.535 16.7354 13.4062C16.6066 13.2774 16.4319 13.2051 16.2498 13.2051H13.3885C13.2064 13.2051 13.0317 13.2774 12.903 13.4062C12.7742 13.535 12.7018 13.7096 12.7018 13.8918V15.9968ZM12.7018 15.9968V24.9893M17.5251 11.8398H20.0879C20.1683 11.8398 20.2478 11.8557 20.322 11.8866C20.3961 11.9175 20.4634 11.9627 20.5201 12.0197C20.5767 12.0767 20.6214 12.1443 20.6518 12.2186C20.6822 12.293 20.6975 12.3726 20.697 12.453V14.6357H16.916V12.453C16.9155 12.3726 16.9309 12.293 16.9612 12.2186C16.9916 12.1443 17.0364 12.0767 17.093 12.0197C17.1496 11.9627 17.2169 11.9175 17.2911 11.8866C17.3652 11.8557 17.4448 11.8398 17.5251 11.8398Z" stroke="#038886" stroke-linecap="round" stroke-linejoin="round"/>
</svg>
