<svg width="53" height="53" viewBox="0 0 53 53" fill="none" xmlns="http://www.w3.org/2000/svg">
<path d="M0 20.3846C0 9.1265 9.1265 0 20.3846 0H32.6154C43.8735 0 53 9.1265 53 20.3846V32.6154C53 43.8735 43.8735 53 32.6154 53H0V20.3846Z" fill="#E3F5FF"/>
<path d="M17.7916 32.5001V20.5834C17.7916 16.2501 18.875 15.1667 23.2083 15.1667H30.7916C35.125 15.1667 36.2083 16.2501 36.2083 20.5834V31.4167C36.2083 31.5684 36.2083 31.7201 36.1975 31.8717" stroke="#3296FF" stroke-width="1.5" stroke-linecap="round" stroke-linejoin="round"/>
<path d="M22.6666 20.5833H31.3333M22.6666 24.3749H28.0833M20.8791 29.2499H36.2083V33.0416C36.2083 35.1324 34.5075 36.8333 32.4166 36.8333H21.5833C19.4925 36.8333 17.7916 35.1324 17.7916 33.0416V32.3374C17.7916 30.6366 19.1783 29.2499 20.8791 29.2499Z" stroke="#3296FF" stroke-width="1.5" stroke-linecap="round" stroke-linejoin="round"/>
</svg>
