<svg width="16" height="16" viewBox="0 0 16 16" fill="none" xmlns="http://www.w3.org/2000/svg">
<path d="M5.27282 8.3998C5.27282 7.00074 6.39175 5.86627 7.7724 5.86627C9.15305 5.86627 10.2726 7.00074 10.2726 8.3998C10.2726 9.79887 9.15305 10.9333 7.7724 10.9333C6.39175 10.9333 5.27282 9.79887 5.27282 8.3998ZM3.92127 8.3998C3.92127 10.5552 5.64542 12.3023 7.7724 12.3023C9.89938 12.3023 11.6235 10.5552 11.6235 8.3998C11.6235 6.24444 9.89938 4.4973 7.7724 4.4973C5.64542 4.4973 3.92127 6.24444 3.92127 8.3998ZM10.876 4.34256C10.8758 4.84624 11.2786 5.25472 11.7756 5.25492C12.2727 5.25513 12.6758 4.84697 12.676 4.34329C12.6762 3.83961 12.2734 3.43113 11.7764 3.43092H11.776C11.2792 3.43116 10.8764 3.83912 10.876 4.34256ZM4.74243 14.586C4.01121 14.5523 3.61377 14.4289 3.34966 14.3246C2.9995 14.1864 2.74966 14.0219 2.48698 13.7561C2.22431 13.4903 2.06171 13.2374 1.92599 12.8825C1.82303 12.615 1.70123 12.2121 1.66799 11.4712C1.63163 10.6701 1.62437 10.4294 1.62437 8.39987C1.62437 6.3703 1.63223 6.13032 1.66799 5.32855C1.70129 4.58758 1.82399 4.18551 1.92599 3.9172C2.06231 3.56237 2.22467 3.3092 2.48698 3.04302C2.7493 2.77684 2.9989 2.61207 3.34966 2.47454C3.61365 2.37021 4.01121 2.24678 4.74243 2.2131C5.53298 2.17626 5.77046 2.1689 7.7724 2.1689C9.77435 2.1689 10.0121 2.17686 10.8033 2.2131C11.5345 2.24684 11.9313 2.37118 12.196 2.47454C12.5462 2.61207 12.796 2.7772 13.0587 3.04302C13.3214 3.30884 13.4834 3.56237 13.6197 3.9172C13.7227 4.18472 13.8445 4.58758 13.8777 5.32855C13.9141 6.13032 13.9213 6.3703 13.9213 8.39987C13.9213 10.4294 13.9141 10.6694 13.8777 11.4712C13.8444 12.2121 13.722 12.6149 13.6197 12.8825C13.4834 13.2374 13.321 13.4905 13.0587 13.7561C12.7964 14.0217 12.5462 14.1864 12.196 14.3246C11.932 14.4289 11.5345 14.5523 10.8033 14.586C10.0127 14.6229 9.77525 14.6302 7.7724 14.6302C5.76956 14.6302 5.53274 14.6229 4.74243 14.586ZM4.68033 0.84583C3.88191 0.882675 3.33634 1.01096 2.85988 1.19884C2.36644 1.39285 1.94873 1.65313 1.53131 2.07545C1.11389 2.49777 0.857696 2.92172 0.666238 3.42174C0.480839 3.90486 0.35424 4.45741 0.317881 5.26648C0.280921 6.07682 0.272461 6.33589 0.272461 8.3998C0.272461 10.4637 0.280921 10.7228 0.317881 11.5331C0.35424 12.3423 0.480839 12.8947 0.666238 13.3779C0.857696 13.8776 1.11395 14.302 1.53131 14.7242C1.94867 15.1463 2.36644 15.4062 2.85988 15.6008C3.33724 15.7886 3.88191 15.9169 4.68033 15.9538C5.48042 15.9906 5.73566 15.9998 7.7724 15.9998C9.80914 15.9998 10.0648 15.9912 10.8645 15.9538C11.663 15.9169 12.2082 15.7886 12.6849 15.6008C13.1781 15.4062 13.5961 15.1465 14.0135 14.7242C14.4309 14.3018 14.6866 13.8776 14.8786 13.3779C15.064 12.8947 15.1912 12.3422 15.2269 11.5331C15.2633 10.7222 15.2717 10.4637 15.2717 8.3998C15.2717 6.33589 15.2633 6.07682 15.2269 5.26648C15.1906 4.45735 15.064 3.90456 14.8786 3.42174C14.6866 2.92203 14.4302 2.49844 14.0135 2.07545C13.5967 1.65246 13.1781 1.39285 12.6855 1.19884C12.2082 1.01096 11.6629 0.882067 10.8651 0.84583C10.0654 0.808985 9.80975 0.799805 7.773 0.799805C5.73626 0.799805 5.48042 0.808377 4.68033 0.84583Z" fill="#3D4F60"/>
</svg>
