<svg width="130" height="24" viewBox="0 0 130 24" fill="none" xmlns="http://www.w3.org/2000/svg">
<path d="M34.616 19.4261V23.9971H31.7021V9.11683H34.616V9.82801C35.426 9.31183 36.4575 8.96484 37.5298 8.96484C40.8399 8.96484 43.2701 11.5515 43.2701 14.6371C43.2701 17.6997 40.8603 20.3093 37.5298 20.3093C36.4138 20.3093 35.426 19.9652 34.616 19.4261ZM34.616 13.2807V15.9132C35.1201 16.9255 36.1283 17.5965 37.3113 17.5965C39.0217 17.5965 40.3562 16.3032 40.3562 14.6428C40.3562 12.9595 39.0421 11.6891 37.3317 11.6891C36.1487 11.6834 35.1201 12.3085 34.616 13.2807Z" fill="#3D4F60"/>
<path d="M44.8467 6.1174C44.8467 5.16821 45.5489 4.45703 46.4901 4.45703C47.4313 4.45703 48.2005 5.16821 48.2005 6.1174C48.2005 7.02358 47.4342 7.77778 46.4901 7.77778C45.546 7.77778 44.8467 7.02358 44.8467 6.1174ZM45.0244 9.11697H47.982V20.1374H45.0244V9.11697Z" fill="#3D4F60"/>
<path d="M49.7324 14.5965C49.7324 11.5568 52.1422 8.99023 55.4727 8.99023C56.5683 8.99023 57.5765 9.27126 58.4302 9.72435V9.11641H61.3237V19.5117C61.3237 22.3793 58.8032 23.9336 55.6475 23.9336C53.5874 23.9336 51.6148 23.3285 50.3239 22.3363L51.5303 20.2888C52.6055 21 54.0711 21.4531 55.6504 21.4531C57.6872 21.4531 58.3253 20.6559 58.4127 19.3626C57.5357 19.9017 56.5275 20.2257 55.4756 20.2257C52.1218 20.2228 49.7324 17.7653 49.7324 14.5965ZM58.4331 15.8239V13.3663C57.929 12.3311 56.8772 11.64 55.6941 11.64C53.9837 11.64 52.6492 12.9763 52.6492 14.5936C52.6492 16.297 53.9633 17.4842 55.6737 17.4842C56.9209 17.4842 57.9057 16.8591 58.4331 15.8239Z" fill="#3D4F60"/>
<path d="M63.0781 14.5965C63.0781 11.5568 65.4879 8.99023 68.8184 8.99023C69.914 8.99023 70.9222 9.27126 71.7759 9.72435V9.11641H74.6694V19.5117C74.6694 22.3793 72.1489 23.9336 68.9932 23.9336C66.9331 23.9336 64.9605 23.3285 63.6696 22.3363L64.876 20.2888C65.9512 21 67.4168 21.4531 68.9961 21.4531C71.0329 21.4531 71.671 20.6559 71.7584 19.3626C70.8814 19.9017 69.8732 20.2257 68.8213 20.2257C65.4646 20.2228 63.0781 17.7653 63.0781 14.5965ZM71.7759 15.8239V13.3663C71.2718 12.3311 70.2199 11.64 69.0369 11.64C67.3265 11.64 65.992 12.9763 65.992 14.5936C65.992 16.297 67.3061 17.4842 69.0165 17.4842C70.2636 17.4842 71.2514 16.8591 71.7759 15.8239Z" fill="#3D4F60"/>
<path d="M78.9179 9.11621L81.8551 16.4718L84.8796 9.11621H87.9479L81.5054 23.9965H78.7664L80.3894 20.0276L75.6748 9.11621H78.9179Z" fill="#3D4F60"/>
<path d="M87.3975 9.11621H90.5298L93.3796 16.5578L96.206 9.11621H99.2743L94.7811 20.1366H91.844L87.3975 9.11621Z" fill="#3D4F60"/>
<path d="M99.4922 14.5531C99.4922 11.4474 101.75 8.88086 105.276 8.88086C108.543 8.88086 111.016 11.2954 111.083 14.4671C111.107 14.7251 111.107 15.0062 111.083 15.2872H102.255C102.342 16.8386 103.854 17.8538 105.477 17.8538C106.815 17.8538 107.601 17.4867 108.522 16.7325L110.122 18.3929C108.828 19.7292 107.537 20.3544 105.477 20.3544C101.683 20.3544 99.4922 17.5699 99.4922 14.5531ZM102.406 13.2368H108.059C107.773 12.2016 106.765 11.2954 105.232 11.2954C103.458 11.2954 102.715 12.1787 102.406 13.2368Z" fill="#3D4F60"/>
<path d="M111.699 18.9525L113.124 16.667C114.395 17.4872 115.907 17.9833 117.463 17.9833C118.931 17.9833 119.677 17.6162 119.677 16.9911C119.677 16.581 119.328 16.2799 118.582 16.1279L115.513 15.4798C113.255 15.0067 112.227 13.9485 112.227 12.2222C112.227 10.3897 113.803 8.8584 117.069 8.8584C119.042 8.8584 120.793 9.42046 122 10.1517L120.662 12.3512C119.677 11.835 118.36 11.273 116.982 11.273C115.732 11.273 115.009 11.5741 115.009 12.1361C115.009 12.5032 115.272 12.7412 115.994 12.8702L118.579 13.3434C121.385 13.8825 122.457 15.1128 122.457 16.7731C122.457 19.1676 120.024 20.4179 117.372 20.4179C115.248 20.4179 113.538 19.9878 111.699 18.9525Z" fill="#3D4F60"/>
<path d="M123.048 9.11677H124.715V6.07705L127.628 4.22168V9.11677H129.339V11.6174H127.628V20.1372H124.715V11.6174H123.048V9.11677Z" fill="#3D4F60"/>
<path d="M24.4092 11.0697C24.3568 10.3643 24.249 9.67319 24.0596 8.99068C23.2262 5.95957 21.475 3.58515 18.7943 1.88463C17.0867 0.79492 15.1986 0.189847 13.1647 0.0321261C12.3168 -0.0280947 11.4805 -0.00228697 10.6355 0.098081C9.74679 0.215655 8.88138 0.41926 8.0451 0.717496C4.35036 2.03949 1.50937 5.04479 0.448731 8.77274C0.218538 9.57569 0.0845013 10.3958 0.0262246 11.2303C4.34196e-08 11.6605 0 12.0906 0 12.5208V22.9762C0 23.5383 0.4633 24 1.04024 24H5.14584C5.68198 24 6.12489 23.5957 6.18025 23.0824C6.18025 23.0824 6.18025 23.0823 6.18025 23.0766C6.20647 22.9791 6.22104 22.8759 6.22104 22.7755V22.5346C6.22104 22.5146 6.21521 22.5002 6.22104 22.4773V22.4629C6.25601 22.4687 6.27932 22.4887 6.29972 22.4974C7.85571 23.3376 9.51368 23.8279 11.2824 23.9627C11.9788 24.0143 12.681 24.0086 13.3891 23.9427C14.0185 23.8824 14.642 23.7849 15.2627 23.6243C17.9201 22.9332 20.1171 21.5367 21.8276 19.406C23.299 17.5736 24.1441 15.4802 24.383 13.1545C24.4617 12.4577 24.4675 11.7666 24.4092 11.0697ZM14.4002 17.7514C14.3856 17.8288 14.3215 17.8804 14.2428 17.8804H10.2072C10.1343 17.8804 10.0673 17.8288 10.0498 17.7514L10.044 17.7256V17.5765C10.044 17.3872 10.0644 17.2123 10.1052 17.0345C10.1314 16.9742 10.146 16.9026 10.1722 16.8337C10.1926 16.7678 10.2247 16.7047 10.2509 16.6387C10.2858 16.5785 10.3179 16.5154 10.3558 16.4609C10.3762 16.4294 10.3907 16.4036 10.4141 16.3749C10.449 16.3175 10.4986 16.2631 10.5393 16.2114C10.586 16.1541 10.6326 16.1053 10.6792 16.0537C10.9181 15.8243 11.2154 15.6379 11.5417 15.5375C11.093 15.3024 10.7929 14.8321 10.7929 14.2987C10.7929 13.5216 11.4339 12.8907 12.2235 12.885C12.6198 12.885 12.9782 13.0484 13.2376 13.3008C13.4969 13.556 13.6601 13.9087 13.6601 14.2987C13.6601 14.8321 13.3541 15.3024 12.9112 15.5375C13.7795 15.8186 14.4089 16.6244 14.4089 17.5793C14.4118 17.6338 14.406 17.6969 14.4002 17.7514ZM21.3817 9.06811H3.06827C2.92258 9.06811 2.81768 8.92473 2.8643 8.78708C4.22215 4.99317 7.89941 2.26889 12.2235 2.26889C16.5477 2.26889 20.2249 4.99317 21.5828 8.78708C21.6323 8.92473 21.5274 9.06811 21.3817 9.06811Z" fill="#3D4F60"/>
</svg>
