<svg width="40" height="40" viewBox="0 0 40 40" fill="none" xmlns="http://www.w3.org/2000/svg">
<path d="M0 20C0 8.95431 8.95431 0 20 0C31.0457 0 40 8.95431 40 20C40 31.0457 31.0457 40 20 40H0V20Z" fill="#F0F0F0"/>
<path d="M26.2478 12.4521H13.3722C12.4141 12.4521 11.635 13.1854 11.635 14.0871V25.5321C11.635 26.4339 12.4141 27.1671 13.3722 27.1671H26.2478C27.2059 27.1671 27.985 26.4339 27.985 25.5321V14.0871C27.985 13.1854 27.2059 12.4521 26.2478 12.4521ZM26.2478 25.5321H13.3722C13.3256 25.5321 13.2937 25.5191 13.2798 25.5191C13.2741 25.5191 13.2708 25.5207 13.27 25.5256L13.2602 14.1248C13.2659 14.1166 13.3027 14.0871 13.3722 14.0871H26.2478C26.3124 14.088 26.3476 14.11 26.35 14.0937L26.3598 25.4945C26.3541 25.5027 26.3173 25.5321 26.2478 25.5321Z" fill="#222936"/>
<path d="M14.905 15.7227H19.81V20.6277H14.905V15.7227ZM20.6275 22.2627H14.905V23.8977H24.715V22.2627H21.445H20.6275ZM21.445 18.9927H24.715V20.6277H21.445V18.9927ZM21.445 15.7227H24.715V17.3577H21.445V15.7227Z" fill="#222936"/>
</svg>
