<svg width="40" height="40" viewBox="0 0 40 40" fill="none" xmlns="http://www.w3.org/2000/svg">
<path d="M0 20C0 8.95431 8.95431 0 20 0C31.0457 0 40 8.95431 40 20C40 31.0457 31.0457 40 20 40H0V20Z" fill="#FFF1F9"/>
<path d="M21.445 11.6348H14.905C14.0058 11.6348 13.27 12.3705 13.27 13.2698V26.3498C13.27 27.249 14.0058 27.9848 14.905 27.9848H24.715C25.6143 27.9848 26.35 27.249 26.35 26.3498V16.5398L21.445 11.6348ZM24.715 26.3498H14.905V13.2698H20.6275V17.3573H24.715V26.3498ZM17.3575 20.6273V25.5323H15.7225V20.6273H17.3575ZM22.2625 22.2623V25.5323H23.8975V22.2623H22.2625ZM18.9925 18.9923V25.5323H20.6275V18.9923H18.9925Z" fill="#E5489B"/>
</svg>
