<svg width="19" height="16" viewBox="0 0 19 16" fill="none" xmlns="http://www.w3.org/2000/svg">
<path d="M12.6597 0.803178V0.799805H13.5119L13.8232 0.863911C14.0308 0.90553 14.2193 0.960071 14.3886 1.02755C14.5579 1.09503 14.7218 1.17377 14.8802 1.26373C15.0386 1.3537 15.1823 1.44537 15.3112 1.53872C15.439 1.63095 15.5538 1.72879 15.6554 1.83226C15.7558 1.93685 15.9126 1.96384 16.1257 1.91323C16.3387 1.86262 16.5681 1.79233 16.8139 1.70236C17.0597 1.61239 17.3028 1.51117 17.5432 1.39869C17.7835 1.28622 17.9299 1.21481 17.9824 1.18444C18.0337 1.15296 18.061 1.13609 18.0643 1.13383L18.0676 1.12877L18.084 1.12034L18.1004 1.1119L18.1167 1.10347L18.1331 1.09503L18.1364 1.08997L18.1413 1.0866L18.1463 1.08322L18.1495 1.07816L18.1659 1.0731L18.1823 1.06973L18.179 1.09503L18.1741 1.12034L18.1659 1.14564L18.1577 1.17095L18.1495 1.18782L18.1413 1.20469L18.1331 1.22999C18.1277 1.24686 18.1222 1.26935 18.1167 1.29747C18.1113 1.3256 18.0594 1.43805 17.9611 1.63488C17.8627 1.8317 17.7398 2.03133 17.5923 2.23377C17.4449 2.43621 17.3127 2.58915 17.1958 2.69263C17.0778 2.79723 16.9997 2.87033 16.9614 2.91195C16.9232 2.95468 16.8768 2.99404 16.8221 3.03004L16.7402 3.08571L16.7238 3.09414L16.7074 3.10258L16.7042 3.10764L16.6992 3.11101L16.6943 3.11439L16.691 3.11945L16.6746 3.12788L16.6583 3.13632L16.655 3.14138L16.6501 3.14475L16.6451 3.14813L16.6419 3.15319L16.6386 3.15825L16.6337 3.16162L16.6288 3.165L16.6255 3.17006H16.7074L17.1663 3.06884C17.4722 3.00136 17.7644 2.91982 18.043 2.82422L18.4855 2.67239L18.5346 2.65552L18.5592 2.64709L18.5756 2.63865L18.592 2.63022L18.6084 2.62178L18.6248 2.61335L18.6575 2.60828L18.6903 2.60491V2.63865L18.6821 2.64202L18.6739 2.64709L18.6707 2.65215L18.6657 2.65552L18.6608 2.65889L18.6575 2.66396L18.6543 2.66902L18.6493 2.67239L18.6444 2.67576L18.6411 2.68083L18.6379 2.68589L18.6329 2.68926L18.6248 2.70613L18.6166 2.723L18.6116 2.72637C18.6095 2.72975 18.5401 2.82534 18.4035 3.01317C18.267 3.20211 18.1932 3.2977 18.1823 3.29996C18.1714 3.30333 18.1561 3.3202 18.1364 3.35057C18.1178 3.38205 18.002 3.50746 17.789 3.72677C17.576 3.94609 17.3673 4.14121 17.163 4.31217C16.9576 4.48424 16.8538 4.69568 16.8516 4.94649C16.8484 5.19616 16.8358 5.47847 16.8139 5.79337C16.7921 6.10828 16.7511 6.44849 16.691 6.81401C16.631 7.17954 16.5381 7.59286 16.4124 8.05397C16.2868 8.51508 16.1339 8.96495 15.9536 9.40358C15.7733 9.8422 15.5849 10.2358 15.3882 10.5845C15.1916 10.9331 15.0113 11.2284 14.8474 11.4702C14.6836 11.712 14.517 11.9397 14.3476 12.1534C14.1783 12.3671 13.9642 12.6078 13.7052 12.8755C13.4452 13.142 13.3032 13.2882 13.2792 13.3141C13.2541 13.3388 13.147 13.4311 12.958 13.5907C12.7701 13.7516 12.5679 13.9124 12.3516 14.0732C12.1364 14.2329 11.9387 14.3662 11.7584 14.4731C11.5781 14.5799 11.3607 14.7019 11.1062 14.8391C10.8527 14.9775 10.5785 15.1057 10.2835 15.2238C9.98856 15.3419 9.67719 15.4515 9.34944 15.5527C9.0217 15.654 8.70488 15.7327 8.39897 15.7889C8.09308 15.8452 7.74621 15.893 7.35837 15.9323L6.77661 15.9914V15.9998H5.71143V15.9914L5.57213 15.9829C5.47928 15.9773 5.4028 15.9717 5.34271 15.9661C5.28263 15.9604 5.05593 15.9295 4.66263 15.8733C4.26933 15.8171 3.96071 15.7608 3.73674 15.7046C3.51279 15.6483 3.17956 15.5415 2.7371 15.384C2.29464 15.2266 1.91609 15.0674 1.60145 14.9066C1.28791 14.7469 1.09126 14.6457 1.0115 14.603C0.932843 14.5613 0.84435 14.5096 0.746026 14.4478L0.598539 14.355L0.595278 14.3499L0.590345 14.3465L0.585429 14.3432L0.582151 14.3381L0.565764 14.3297L0.549376 14.3212L0.546115 14.3162L0.541183 14.3128L0.536266 14.3094L0.532989 14.3044L0.529728 14.2993L0.524795 14.2959H0.516602V14.2622L0.532989 14.2656L0.549376 14.2706L0.62312 14.279C0.672282 14.2847 0.806118 14.2931 1.02461 14.3044C1.24312 14.3156 1.47527 14.3156 1.72108 14.3044C1.96689 14.2931 2.21818 14.2678 2.4749 14.2284C2.73165 14.1891 3.03481 14.1216 3.38441 14.026C3.73402 13.9304 4.05521 13.8168 4.34801 13.6852C4.6397 13.5525 4.84727 13.4535 4.97073 13.3883C5.09308 13.3242 5.2799 13.205 5.53117 13.0307L5.90808 12.7692L5.91135 12.7641L5.91627 12.7607L5.9212 12.7574L5.92446 12.7523L5.92774 12.7472L5.93266 12.7439L5.93759 12.7405L5.94085 12.7354L5.95724 12.7304L5.97363 12.727L5.9769 12.7101L5.98182 12.6933L5.98675 12.6899L5.99002 12.6848L5.85891 12.6764C5.77152 12.6708 5.68685 12.6651 5.60491 12.6595C5.52297 12.6539 5.39461 12.6286 5.2198 12.5836C5.04501 12.5386 4.85656 12.4711 4.65444 12.3812C4.45233 12.2912 4.25568 12.1843 4.06449 12.0606C3.87331 11.9369 3.7351 11.834 3.64988 11.7519C3.56577 11.6709 3.45651 11.5562 3.32214 11.4078C3.18886 11.2582 3.07305 11.1046 2.97472 10.9472C2.8764 10.7897 2.78245 10.6081 2.69287 10.4023L2.55684 10.0953L2.54865 10.0699L2.54045 10.0446L2.53554 10.0278L2.53226 10.0109L2.55684 10.0143L2.58142 10.0193L2.76168 10.0446C2.88187 10.0615 3.07033 10.0671 3.32705 10.0615C3.58379 10.0559 3.76132 10.0446 3.85964 10.0278C3.95797 10.0109 4.01806 9.99965 4.03991 9.99403L4.07268 9.9856L4.11365 9.97716L4.15462 9.96873L4.1579 9.96367L4.16281 9.96029L4.16775 9.95692L4.17101 9.95186L4.13823 9.94342L4.10546 9.93499L4.07268 9.92655L4.03991 9.91812L4.00713 9.90968C3.98529 9.90407 3.94705 9.89281 3.89242 9.87594C3.8378 9.85907 3.69031 9.79721 3.44996 9.69037C3.20962 9.58353 3.01843 9.47949 2.8764 9.37827C2.73401 9.27676 2.59825 9.16574 2.46999 9.04593C2.34217 8.92447 2.20179 8.76813 2.04883 8.57694C1.89589 8.38575 1.75933 8.16362 1.63914 7.91057C1.51897 7.65752 1.42884 7.41572 1.36875 7.18515C1.3089 6.95595 1.26941 6.72161 1.25078 6.48504L1.22126 6.13077L1.23765 6.13414L1.25404 6.13921L1.27042 6.14764L1.28681 6.15608L1.3032 6.16451L1.31959 6.17295L1.57359 6.29104C1.74294 6.36977 1.95324 6.43725 2.20451 6.49348C2.4558 6.54971 2.606 6.58065 2.65517 6.58626L2.72891 6.5947H2.8764L2.87314 6.58964L2.8682 6.58626L2.86329 6.58289L2.86001 6.57783L2.85675 6.57277L2.85182 6.56939L2.8469 6.56602L2.84362 6.56096L2.82723 6.55252L2.81085 6.54409L2.80759 6.53903L2.80265 6.53565L2.79774 6.53228L2.79446 6.52722L2.77807 6.51878L2.76168 6.51035L2.75842 6.50529C2.75515 6.50303 2.70816 6.46704 2.61747 6.39732C2.52788 6.32646 2.43393 6.23481 2.33561 6.12234C2.23729 6.00986 2.13896 5.89177 2.04064 5.76806C1.94213 5.64407 1.85439 5.51141 1.77844 5.37161C1.70197 5.23104 1.62112 5.05219 1.5359 4.83514C1.45178 4.6192 1.38787 4.40158 1.34417 4.18227C1.30048 3.96296 1.2759 3.74646 1.27042 3.53277C1.26497 3.31907 1.27042 3.13632 1.28681 2.98449C1.3032 2.83266 1.33597 2.66114 1.38514 2.46995C1.4343 2.27876 1.50532 2.07632 1.59817 1.86262L1.73747 1.54209L1.74566 1.51679L1.75385 1.49148L1.75879 1.48811L1.76205 1.48305L1.76533 1.47798L1.77024 1.47461L1.77518 1.47798L1.77844 1.48305L1.78171 1.48811L1.78663 1.49148L1.79156 1.49485L1.79482 1.49992L1.7981 1.50498L1.80302 1.50835L1.81121 1.52522L1.8194 1.54209L1.82434 1.54547L1.8276 1.55053L2.04883 1.80358C2.19632 1.97228 2.37112 2.16067 2.57323 2.36873C2.77535 2.57679 2.88733 2.68476 2.90917 2.69263C2.93103 2.70163 2.95833 2.72749 2.99111 2.77024C3.02388 2.81186 3.13314 2.91139 3.31886 3.06884C3.50459 3.22629 3.74767 3.40906 4.0481 3.61712C4.34855 3.82518 4.68175 4.03044 5.04774 4.23288C5.41373 4.43532 5.80703 4.61807 6.22763 4.78116C6.64825 4.94424 6.94322 5.05108 7.11256 5.10169C7.2819 5.1523 7.5714 5.21697 7.98109 5.2957C8.39078 5.37443 8.69942 5.42504 8.90698 5.44753C9.11456 5.47002 9.25659 5.48296 9.33306 5.48633L9.44777 5.48971L9.44451 5.4644L9.43958 5.43909L9.4068 5.22822C9.38496 5.08764 9.37403 4.89081 9.37403 4.63776C9.37403 4.38471 9.39315 4.15135 9.43138 3.93765C9.46963 3.72396 9.52699 3.50746 9.60345 3.28815C9.67993 3.06884 9.75477 2.89282 9.82796 2.76012C9.90226 2.62853 9.99949 2.47838 10.1197 2.30968C10.2398 2.14098 10.3955 1.96666 10.5867 1.78671C10.7779 1.60675 10.9964 1.44649 11.2422 1.30591C11.488 1.16533 11.7147 1.05847 11.9223 0.985376C12.1299 0.912278 12.3047 0.864468 12.4467 0.84198C12.5887 0.819492 12.6597 0.806552 12.6597 0.803178Z" fill="#3D4F60"/>
</svg>
