<svg width="21" height="15" viewBox="0 0 21 15" fill="none" xmlns="http://www.w3.org/2000/svg">
<path d="M8.22189 10.7143L13.3436 7.5L8.22189 4.28571V10.7143ZM19.6298 2.325C19.7581 2.82857 19.8469 3.50357 19.9061 4.36071C19.9752 5.21786 20.0048 5.95714 20.0048 6.6L20.064 7.5C20.064 9.84643 19.9061 11.5714 19.6298 12.675C19.3831 13.6393 18.8107 14.2607 17.9225 14.5286C17.4587 14.6679 16.61 14.7643 15.3074 14.8286C14.0245 14.9036 12.8502 14.9357 11.7646 14.9357L10.1956 15C6.0607 15 3.48504 14.8286 2.4686 14.5286C1.58044 14.2607 1.00807 13.6393 0.761359 12.675C0.63307 12.1714 0.544254 11.4964 0.485043 10.6393C0.415964 9.78214 0.386359 9.04286 0.386359 8.4L0.327148 7.5C0.327148 5.15357 0.485043 3.42857 0.761359 2.325C1.00807 1.36071 1.58044 0.739286 2.4686 0.471429C2.93241 0.332143 3.7811 0.235714 5.08373 0.171428C6.36662 0.0964284 7.54096 0.0642857 8.62649 0.0642857L10.1956 0C14.3304 0 16.9061 0.171429 17.9225 0.471429C18.8107 0.739286 19.3831 1.36071 19.6298 2.325Z" fill="#3D4F60"/>
</svg>
